<svg width="28" height="28" viewBox="0 0 28 28" fill="none" xmlns="http://www.w3.org/2000/svg">
<circle cx="14" cy="14" r="14" fill="#3C60A7"/>
<path d="M11.6999 12.0407L11.7495 11.7746H13.2344L13.1613 12.0407C12.9049 12.0407 12.9067 12.1778 12.908 12.2745C12.9081 12.2811 12.9082 12.2876 12.9082 12.2938V14.3L12.9447 14.2765L13.9233 12.6955V12.3199C13.9259 12.1137 13.8267 12.0459 13.5971 12.0407L13.6467 11.7746H15.1707L15.1211 12.0407C14.9019 12.0407 14.8236 12.0459 14.8314 12.3303C14.8341 12.3877 14.8314 12.4607 14.8314 12.5364V14.2035L14.8549 14.24L15.9797 12.4033C16.0293 12.3094 16.0449 12.2494 16.0397 12.1737C16.0312 12.0269 15.8978 12.0311 15.6861 12.0376C15.6382 12.0391 15.5862 12.0407 15.5308 12.0407L15.5804 11.7746H16.9478L16.8878 12.0407C16.6295 12.0459 16.5538 12.1711 16.452 12.3538C16.452 12.3538 14.2338 16.0141 14.1295 16.1732C14.0251 16.3324 13.9233 16.1732 13.9233 16.1732L13.9364 13.4417V13.3582C13.9364 13.3582 12.3314 16.0167 12.2323 16.1758C12.1331 16.335 12.0627 16.1758 12.0627 16.1758V12.5364C12.0627 12.0406 11.9681 12.0406 11.7081 12.0407H11.6999Z" fill="white"/>
<path d="M16.2093 16.0529C16.238 15.8938 16.3476 15.7634 16.452 15.7634C16.5564 15.7634 16.6112 15.8938 16.5851 16.0529C16.5564 16.2121 16.4468 16.3425 16.3424 16.3425C16.238 16.3425 16.1832 16.2121 16.2093 16.0529Z" fill="white"/>
<path d="M10.0919 16.053C10.118 15.8938 10.2171 15.7634 10.3215 15.7634C10.4259 15.766 10.4937 15.8938 10.4676 16.053C10.4389 16.2121 10.3293 16.3426 10.2249 16.3426C10.1205 16.3426 10.0658 16.2121 10.0919 16.053Z" fill="white"/>
<path fill-rule="evenodd" clip-rule="evenodd" d="M10.1065 23.2147C11.3408 23.7365 12.6508 24 14 24C15.3492 24 16.6592 23.7339 17.8935 23.2095C19.0835 22.706 20.1534 21.9859 21.072 21.0676C21.9906 20.1492 22.7108 19.0796 23.2145 17.8899C23.7364 16.6559 24 15.3462 24 13.9974C24 12.6486 23.7364 11.3389 23.2145 10.1049C22.7108 8.91522 21.9906 7.84555 21.072 6.92722C20.1534 6.00888 19.0835 5.28882 17.8935 4.78528C16.6592 4.26349 15.3492 4 14 4C12.6508 4 11.3408 4.26349 10.1065 4.78528C8.91388 5.28882 7.84656 6.0141 6.92798 6.93243C6.0094 7.85077 5.28915 8.92044 4.78549 10.1101C4.26358 11.3441 4 12.6538 4 14.0026C4 15.3514 4.26358 16.6611 4.78549 17.8951C5.28915 19.0848 6.0094 20.1544 6.92798 21.0728C7.84656 21.9911 8.9165 22.7112 10.1065 23.2147ZM14.2453 23.426V20.7806H17.2098C16.9097 21.1745 16.5757 21.5528 16.2077 21.9129C15.3257 22.7738 14.501 23.2773 14.2453 23.426ZM11.7949 21.8946C11.4348 21.5424 11.106 21.1693 10.8137 20.7806H13.7234V23.4C13.4285 23.2278 12.6378 22.7242 11.7949 21.8946ZM12.7683 23.3973C10.7406 23.1364 8.86169 22.2311 7.37683 20.7806H10.1691C10.5345 21.3076 10.9624 21.8085 11.4426 22.2807C11.9384 22.7686 12.4134 23.1417 12.7683 23.3973ZM16.56 22.2964C17.048 21.8216 17.4812 21.3128 17.8544 20.7806H20.6206C19.1409 22.2259 17.2698 23.1312 15.2474 23.3947C15.618 23.1286 16.0799 22.7634 16.56 22.2964ZM21.119 20.2588H18.1962C18.2014 20.2484 18.2067 20.2405 18.2145 20.2301C18.739 19.3587 19.107 18.43 19.3079 17.4647H22.8309C22.4316 18.4795 21.8549 19.424 21.119 20.2588ZM17.5778 20.2588H14.2453V17.462H18.773C18.5799 18.3282 18.2432 19.1657 17.7709 19.951C17.7083 20.0553 17.6456 20.157 17.5778 20.2588ZM13.7234 20.2588H10.4457C10.3967 20.1853 10.35 20.1106 10.3041 20.0363C10.2816 19.9998 10.2593 19.9635 10.2369 19.9275C9.77505 19.1474 9.44623 18.3204 9.25836 17.4647H13.7234V20.2588ZM9.82986 20.2588H6.88101C6.14249 19.424 5.56836 18.4795 5.1691 17.462H8.72598C8.92172 18.4169 9.28183 19.3379 9.79593 20.2014C9.80637 20.2223 9.81943 20.2405 9.82986 20.2588ZM23.0162 16.9429H4.9812C4.6785 16.0037 4.51932 15.0149 4.51932 14C4.51932 12.9904 4.67587 12.0068 4.97861 11.0728H23.0214C23.3241 12.0042 23.4807 12.9904 23.4807 14C23.4807 15.0149 23.3215 16.0063 23.0162 16.9429ZM22.8361 10.5484H19.2218C19.0261 9.59091 18.6686 8.66476 18.1545 7.79599C18.1469 7.78647 18.1407 7.77557 18.1348 7.76532C18.1326 7.76151 18.1305 7.75778 18.1284 7.75424H21.132C21.868 8.58908 22.4395 9.53354 22.8361 10.5484ZM18.6895 10.5484H14.2453V7.75162H17.5151C17.5802 7.85312 17.6458 7.95544 17.7056 8.05948C18.1701 8.84738 18.5016 9.68484 18.6895 10.5484ZM13.7234 10.5484H9.1879C9.38101 9.67963 9.72025 8.83954 10.1978 8.04904C10.2578 7.94992 10.3205 7.85339 10.3857 7.75424H13.7234V10.5484ZM8.65292 10.5484H5.16388C5.56055 9.53354 6.13205 8.58908 6.86795 7.75424H9.76984C9.76462 7.75946 9.76199 7.76468 9.7594 7.7699C9.22443 8.64648 8.85385 9.58047 8.65292 10.5484ZM20.6388 7.23245H17.7944C17.4264 6.69763 16.9984 6.18887 16.5183 5.70883C16.0433 5.23663 15.5866 4.86615 15.2187 4.59744C17.2594 4.85834 19.1487 5.77145 20.6388 7.23245ZM17.1524 7.23245H14.2453V4.57397C14.535 4.74615 15.3126 5.24966 16.1503 6.07932C16.5183 6.44717 16.8549 6.83069 17.1524 7.23245ZM13.7234 7.23245H10.7589C11.0642 6.83328 11.4061 6.44717 11.7845 6.08453C12.6247 5.26794 13.4154 4.76962 13.7234 4.58963V7.23245ZM10.1117 7.23245H7.36118C8.84341 5.7793 10.7197 4.86877 12.7448 4.60266C12.3716 4.86877 11.9123 5.23141 11.4322 5.6958C10.9337 6.17844 10.4927 6.69241 10.1117 7.23245Z" fill="white"/>
<path d="M5.75211 12.0407L5.80167 11.7746H7.28653L7.21347 12.0407C6.95703 12.0407 6.95886 12.1778 6.96014 12.2745C6.96024 12.2811 6.96033 12.2876 6.96033 12.2938V14.3L6.99689 14.2765L7.97546 12.6955V12.3199C7.97809 12.1137 7.87891 12.0459 7.64926 12.0407L7.69885 11.7746H9.22287L9.17328 12.0407C8.95407 12.0407 8.87579 12.0459 8.88361 12.3303C8.88623 12.3877 8.88361 12.4607 8.88361 12.5364V14.2035L8.9071 14.24L10.0319 12.4033C10.0814 12.3094 10.0971 12.2494 10.0919 12.1737C10.0833 12.0269 9.94992 12.0311 9.73828 12.0376C9.69034 12.0391 9.6384 12.0407 9.58298 12.0407L9.63257 11.7746H11L10.94 12.0407C10.6816 12.0459 10.606 12.1711 10.5042 12.3538C10.5042 12.3538 8.28601 16.0141 8.18164 16.1732C8.07724 16.3324 7.97546 16.1732 7.97546 16.1732L7.98853 13.4417V13.3582C7.98853 13.3582 6.38361 16.0167 6.28445 16.1758C6.1853 16.335 6.11484 16.1758 6.11484 16.1758V12.5364C6.11484 12.0406 6.02026 12.0406 5.76025 12.0407H5.75211Z" fill="white"/>
<path d="M17.5252 12.0407L17.5747 11.7746H19.0596L18.9865 12.0407C18.7301 12.0407 18.7319 12.1778 18.7332 12.2745C18.7333 12.2811 18.7334 12.2876 18.7334 12.2938V14.3L18.7699 14.2765L19.7485 12.6955V12.3199C19.7511 12.1137 19.652 12.0459 19.4223 12.0407L19.4719 11.7746H20.9959L20.9463 12.0407C20.7271 12.0407 20.6488 12.0459 20.6567 12.3303C20.6593 12.3877 20.6567 12.4607 20.6567 12.5364V14.2035L20.6801 14.24L21.8049 12.4033C21.8545 12.3094 21.8701 12.2494 21.8649 12.1737C21.8564 12.0269 21.723 12.0311 21.5113 12.0376C21.4634 12.0391 21.4114 12.0407 21.356 12.0407L21.4056 11.7746H22.773L22.713 12.0407C22.4547 12.0459 22.379 12.1711 22.2772 12.3538C22.2772 12.3538 20.0591 16.0141 19.9547 16.1732C19.8503 16.3324 19.7485 16.1732 19.7485 16.1732L19.7616 13.4417V13.3582C19.7616 13.3582 18.1567 16.0167 18.0575 16.1758C17.9583 16.335 17.8879 16.1758 17.8879 16.1758V12.5364C17.8879 12.0406 17.7933 12.0406 17.5333 12.0407H17.5252Z" fill="white"/>
</svg>
